<svg aria-label="Next.js logo" height="37" role="img" viewBox="0 0 394 80" width="180" xmlns="http://www.w3.org/2000/svg"><path d="M261.919 0.0330722H330.547V12.7H304.281V79.339H288.087V12.7H261.919V0.0330722Z" fill="black"></path><path d="M149.052 0.0330722V12.7H94.0427V33.0773H138.281V45.7442H94.0427V66.6726H149.052V79.339H77.849V0.0330722H149.052Z" fill="black"></path><path d="M183.32 0.0330722H203.439L249.302 79.339H230.084L218.602 59.1005H168.719L157.237 79.339H137.617L183.32 0.0330722ZM211.779 46.5926L193.66 13.5679L175.54 46.5926H211.779Z" fill="black"></path><path d="M0 0.0330722H16.2931L54.4238 56.2051V0.0330722H70.789V79.339H54.5818L16.3653 23.2931V79.339H0V0.0330722Z" fill="black"></path><path d="M333.607 79.339L291.74 0.0330722H308.322L340.226 61.8687L372.204 0.0330722H388.5L346.404 79.339H333.607Z" fill="black"></path></svg>
