<svg aria-label="Vercel logotype" fill="none" height="24" role="img" viewBox="0 0 283 64" width="107" xmlns="http://www.w3.org/2000/svg">
  <path d="M141.04 16.25c-11.04 0-19 7.2-19 18 0 10.8 8.96 18 20 18 6.67 0 12.55-2.64 16.19-7.09l-7.65-4.42c-2.02 2.21-5.09 3.5-8.54 3.5-4.79 0-8.86-2.5-10.37-6.5h28.02c.22-1.12.35-2.28.35-3.5 0-10.79-7.96-17.99-19-17.99zm-9.46 14.5c1.25-3.99 4.67-6.5 9.45-6.5 4.79 0 8.21 2.51 9.45 6.5h-18.9zM248.72 16.25c-11.04 0-19 7.2-19 18 0 10.8 8.96 18 20 18 6.67 0 12.55-2.64 16.19-7.09l-7.65-4.42c-2.02 2.21-5.09 3.5-8.54 3.5-4.79 0-8.86-2.5-10.37-6.5h28.02c.22-1.12.35-2.28.35-3.5 0-10.79-7.96-17.99-19-17.99zm-9.45 14.5c1.25-3.99 4.67-6.5 9.45-6.5 4.79 0 8.21 2.51 9.45 6.5h-18.9zM200.24 34.77c0 6 3.92 10.25 10 10.25 4.12 0 7.38-1.87 9.06-5.15l7.68 4.43c-3.18 5.3-9.14 8.7-16.74 8.7-11.05 0-19-7.2-19-18s7.96-18 19-18c7.6 0 13.56 3.4 16.74 8.7l-7.68 4.43c-1.68-3.28-4.94-5.15-9.06-5.15-6.07 0-10 4.25-10 10.25zm82.48-29.52v46.98h-9.5V5.25h9.5zM36.95 0L73.9 64H0L36.95 0zm92.38 5.25l-27.71 48L73.91 5.25h10.9l16.41 28.48 16.7-28.48h11.41zm58.91 12v9.5c-1-.29-2.06-.5-3.24-.5-5.81 0-10 4.06-10 10.25V52.5h-9.5V17.25h9.5v9.5c0-5.25 6.15-9.5 13.24-9.5z" fill="currentColor"></path>
</svg>
